<svg xmlns="http://www.w3.org/2000/svg" viewBox="0 0 1071.4 1000"><path d="M500 500q0-59-42-101t-101-42-101 42-42 101 42 101 101 42 101-42 42-101zm429 286q0-29-22-51t-50-21-50 21-21 51q0 29 21 50t50 21 51-21 21-50zm0-572q0-29-22-50t-50-21-50 21-21 50q0 30 21 51t50 21 51-21 21-51zM714 449v103q0 6-4 11t-8 6l-87 14q-6 19-18 42 19 27 50 64 4 6 4 11 0 7-4 11-12 17-46 50t-43 33q-7 0-12-4l-64-50q-21 11-43 17-6 60-13 87-4 13-17 13H305q-6 0-11-4t-5-10l-13-85q-19-6-42-18l-66 50q-4 4-11 4-6 0-12-4-80-75-80-90 0-5 4-10 5-8 23-30t26-34q-13-24-20-46l-85-13q-5-1-9-5t-4-11V447q0-5 4-10t9-6l86-14q7-19 18-42-19-27-50-64-4-6-4-11 0-7 4-12 12-16 46-49t44-33q6 0 12 4l64 50q19-10 43-18 6-60 13-86 3-13 16-13h104q6 0 11 4t6 10l13 85q19 6 42 17l65-49q5-4 12-4 6 0 11 4 81 75 81 90 0 4-4 10-7 9-24 30t-25 34q13 27 19 46l85 12q6 2 9 6t4 11zm357 298v78q0 9-83 17-6 15-16 29 28 63 28 77 0 2-2 4-68 40-69 40-5 0-26-27t-29-37q-11 1-17 1t-17-1q-7 11-29 37t-25 27q-1 0-69-40-3-2-3-4 0-14 29-77-10-14-17-29-83-8-83-17v-78q0-9 83-18 7-16 17-29-29-63-29-77 0-2 3-4 2-1 19-11t33-19 17-9q4 0 25 26t29 38q12-1 17-1t17 1q28-40 51-63l4-1q2 0 69 39 2 2 2 4 0 14-28 77 9 13 16 29 83 9 83 18zm0-572v78q0 9-83 18-6 15-16 29 28 63 28 77 0 2-2 4-68 39-69 39-5 0-26-26t-29-38q-11 1-17 1t-17-1q-7 12-29 38t-25 26q-1 0-69-39-3-2-3-4 0-14 29-77-10-14-17-29-83-9-83-18v-78q0-9 83-17 7-16 17-29-29-63-29-77 0-2 3-4 2-1 19-11t33-19 17-9q4 0 25 26t29 37q12-1 17-1t17 1q28-39 51-62l4-1q2 0 69 39 2 2 2 4 0 14-28 77 9 13 16 29 83 8 83 17z"/></svg>