<svg width="16" height="16" xmlns="http://www.w3.org/2000/svg" viewBox="0 0 1000 1000"><path d="M988 857q0 30-20 50l-60 61q-22 20-51 20t-50-20L604 764q-21-20-21-50 0-29 24-53L464 518l-70 70q-8 8-19 8t-19-8l7 7 7 7 6 6q5 5 5 8t4 8 3 9 0 10q0 21-15 38-2 1-9 10t-11 11-10 9-13 9-12 5-14 3q-23 0-38-16L38 484q-16-15-16-38 0-7 3-14t5-12 9-13 9-10 11-11 10-9q17-15 38-15h10q4 0 9 3t8 4 8 5 6 6 7 7 7 7q-8-8-8-19t8-19l194-194q8-8 19-8t19 8l-7-7-7-7q-1-1-6-7t-5-7-3-8-4-9 0-10q0-21 15-38 2-2 9-10t11-11 10-10 13-8 12-5 14-3q23 0 38 16l228 228q16 15 16 38 0 7-3 14t-5 12-8 13-10 10-11 11-10 9q-17 15-38 15h-10q-4 0-9-4t-8-3-7-5-7-6-7-7-7-7q8 8 8 19t-8 19l-70 70 143 143q24-24 53-24t51 21l203 202q20 22 20 51z"/></svg>