<?xml version="1.0" encoding="UTF-8" standalone="no"?>
<!-- Created with Inkscape (http://www.inkscape.org/) -->

<svg
   xmlns:dc="http://purl.org/dc/elements/1.1/"
   xmlns:cc="http://creativecommons.org/ns#"
   xmlns:rdf="http://www.w3.org/1999/02/22-rdf-syntax-ns#"
   xmlns:svg="http://www.w3.org/2000/svg"
   xmlns="http://www.w3.org/2000/svg"
   xmlns:sodipodi="http://sodipodi.sourceforge.net/DTD/sodipodi-0.dtd"
   xmlns:inkscape="http://www.inkscape.org/namespaces/inkscape"
   width="193.57388mm"
   height="138.69153mm"
   viewBox="0 0 193.57388 138.69153"
   version="1.1"
   id="svg8"
   inkscape:version="0.92.2 (5c3e80d, 2017-08-06)"
   sodipodi:docname="GunDealsPigVector.svg">
  <defs
     id="defs2" />
  <sodipodi:namedview
     id="base"
     pagecolor="#ffffff"
     bordercolor="#666666"
     borderopacity="1.0"
     inkscape:pageopacity="0.0"
     inkscape:pageshadow="2"
     inkscape:zoom="1.4"
     inkscape:cx="361.90515"
     inkscape:cy="272.90271"
     inkscape:document-units="mm"
     inkscape:current-layer="layer1"
     showgrid="false"
     showguides="true"
     inkscape:guide-bbox="true"
     inkscape:window-width="1858"
     inkscape:window-height="1057"
     inkscape:window-x="54"
     inkscape:window-y="-8"
     inkscape:window-maximized="1"
     fit-margin-top="0"
     fit-margin-left="0"
     fit-margin-right="0"
     fit-margin-bottom="0" />
  <metadata
     id="metadata5">
    <rdf:RDF>
      <cc:Work
         rdf:about="">
        <dc:format>image/svg+xml</dc:format>
        <dc:type
           rdf:resource="http://purl.org/dc/dcmitype/StillImage" />
        <dc:title></dc:title>
      </cc:Work>
    </rdf:RDF>
  </metadata>
  <g
     inkscape:label="Layer 1"
     inkscape:groupmode="layer"
     id="layer1"
     transform="translate(-6.669298,-34.327202)">
    <path
       style="font-style:normal;font-variant:normal;font-weight:normal;font-stretch:normal;font-size:27.30469704px;line-height:1.25;font-family:'Antique Olive Nord Italic';-inkscape-font-specification:'Antique Olive Nord Italic, ';letter-spacing:0px;word-spacing:0px;fill:#6600b6;fill-opacity:1;stroke:#6600b6;stroke-width:0.99999994;stroke-opacity:1"
       d="m 299.82031,407.61719 -6.66406,24.39453 h 31.72656 l 0.008,-0.0312 h 10.30469 c 3.17458,0 5.38205,0.55548 6.625,1.66406 1.22616,1.09178 1.83985,2.87934 1.83985,5.36524 0,0.89023 -0.1336,2.12619 -0.40235,3.70507 -0.33593,1.57889 -0.89141,3.9219 -1.66406,7.0293 -0.40312,1.57889 -0.94805,3.09065 -1.63672,4.53516 -0.75585,1.44451 -1.68829,2.71093 -2.79687,3.80273 -1.09179,1.10856 -2.36018,1.97422 -3.80469,2.5957 -1.44452,0.68868 -3.06604,1.03321 -4.86328,1.03321 h -11.76563 l 6.23047,-22.69141 h -31.71484 l -11.55274,42.29297 h 60.57032 c 2.62028,0 5.37464,-0.37696 8.26367,-1.13281 2.82183,-0.68866 5.56759,-1.82346 8.23828,-3.40235 2.68747,-1.57888 5.1641,-3.67853 7.43164,-6.29882 2.21717,-2.62028 4.00666,-5.82034 5.36719,-9.59961 1.31013,-3.4433 2.45157,-6.64339 3.42578,-9.59961 0.9574,-2.88905 1.78202,-5.6434 2.4707,-8.26368 0.62148,-2.53631 1.09962,-5.01291 1.43555,-7.43164 0.35273,-2.33474 0.5293,-4.66916 0.5293,-7.0039 0,-4.26636 -0.62228,-7.77661 -1.86524,-10.53125 -1.24296,-2.68747 -2.85588,-4.82151 -4.83789,-6.40039 -2.06599,-1.51171 -4.40903,-2.57774 -7.0293,-3.19922 -2.62029,-0.55428 -5.34026,-0.83203 -8.16211,-0.83203 z"
       transform="matrix(0.26458333,0,0,0.26458333,6.8015897,34.327202)"
       id="path839"
       inkscape:connector-curvature="0" />
    <g
       id="g857"
       transform="translate(-199.94941,3.7797619)">
      <path
         sodipodi:nodetypes="ccccc"
         inkscape:connector-curvature="0"
         id="path843"
         d="m 347.03807,92.562133 c 1.9839,0.008 5.45705,-1.825953 7.85231,-2.838199 3.29875,-1.591199 3.85686,-5.68561 3.41504,-6.589808 -1.9922,-6.160848 -13.71632,-2.164338 -7.38531,5.367806 1.84126,2.641826 9.22552,3.814126 13.94004,1.024904"
         style="opacity:1;fill:none;stroke:#6600b6;stroke-width:4.16499996;stroke-linecap:round;stroke-linejoin:miter;stroke-miterlimit:4;stroke-dasharray:none;stroke-opacity:1" />
      <path
         sodipodi:nodetypes="ccccccc"
         inkscape:connector-curvature="0"
         id="path834"
         d="m 302.10599,31.594182 43.7647,27.804193 v 45.386265 l -43.7647,27.94048 -43.86207,-28.59455 0.23286,-44.5959 z"
         style="opacity:1;fill:#6600b6;fill-opacity:1;stroke:#ffffff;stroke-width:1.76499999;stroke-linecap:butt;stroke-linejoin:miter;stroke-miterlimit:4;stroke-dasharray:none;stroke-opacity:1" />
      <text
         id="text889"
         y="73.257423"
         x="290.01138"
         style="font-style:normal;font-variant:normal;font-weight:bold;font-stretch:normal;font-size:10.58333302px;line-height:1.25;font-family:sans-serif;-inkscape-font-specification:'sans-serif Bold';letter-spacing:0px;word-spacing:0px;fill:#ffffff;fill-opacity:1;stroke:#ffffff;stroke-width:1.06500006;stroke-miterlimit:4;stroke-dasharray:none"
         xml:space="preserve"><tspan
           style="font-style:normal;font-variant:normal;font-weight:bold;font-stretch:normal;font-size:14.11111069px;font-family:sans-serif;-inkscape-font-specification:'sans-serif Bold';fill:#ffffff;stroke:#ffffff;stroke-width:1.06500006;stroke-miterlimit:4;stroke-dasharray:none"
           y="73.257423"
           x="290.01138"
           id="tspan887"
           sodipodi:role="line">X</tspan></text>
      <path
         sodipodi:nodetypes="ccc"
         inkscape:connector-curvature="0"
         id="path824"
         d="M 271.00993,50.451441 C 264.7351,38.469817 284.61208,28.526273 290.41227,38.044658 Z"
         style="fill:#6600b6;fill-opacity:1;stroke:none;stroke-width:0.26458332px;stroke-linecap:butt;stroke-linejoin:miter;stroke-opacity:1" />
      <path
         sodipodi:nodetypes="ccc"
         inkscape:connector-curvature="0"
         id="path824-5"
         d="M 334.35345,51.092785 C 340.62827,39.11116 320.7513,29.167616 314.9511,38.686001 Z"
         style="fill:#6600b6;fill-opacity:1;stroke:none;stroke-width:0.26458332px;stroke-linecap:butt;stroke-linejoin:miter;stroke-opacity:1" />
      <text
         id="text889-6"
         y="73.041771"
         x="270.45795"
         style="font-style:normal;font-variant:normal;font-weight:bold;font-stretch:normal;font-size:10.58333302px;line-height:1.25;font-family:sans-serif;-inkscape-font-specification:'sans-serif Bold';letter-spacing:0px;word-spacing:0px;fill:#ffffff;fill-opacity:1;stroke:#ffffff;stroke-width:1.06500006;stroke-miterlimit:4;stroke-dasharray:none"
         xml:space="preserve"><tspan
           style="font-style:normal;font-variant:normal;font-weight:bold;font-stretch:normal;font-size:14.11111069px;font-family:sans-serif;-inkscape-font-specification:'sans-serif Bold';fill:#ffffff;stroke:#ffffff;stroke-width:1.06500006;stroke-miterlimit:4;stroke-dasharray:none"
           y="73.041771"
           x="270.45795"
           id="tspan887-0"
           sodipodi:role="line">X</tspan></text>
      <rect
         ry="9.6130219"
         rx="9.3328075"
         y="70.134521"
         x="260.57303"
         height="39.016258"
         width="31.874746"
         id="rect845-8"
         style="opacity:1;fill:#6600b6;fill-opacity:1;fill-rule:evenodd;stroke:none;stroke-width:5.26500034;stroke-miterlimit:4;stroke-dasharray:none;stroke-dashoffset:0;stroke-opacity:1" />
      <rect
         ry="7.8176332"
         rx="6.4979877"
         y="73.394569"
         x="255.70486"
         height="32.874146"
         width="33.675949"
         id="rect845"
         style="opacity:1;fill:#ffffff;fill-opacity:1;fill-rule:evenodd;stroke:#6600b6;stroke-width:5.26499987;stroke-miterlimit:4;stroke-dasharray:none;stroke-dashoffset:0;stroke-opacity:1" />
      <rect
         ry="1.0022693"
         rx="1.1024878"
         y="81.743217"
         x="264.35349"
         height="11.158506"
         width="2.2049756"
         id="rect849"
         style="opacity:1;fill:#6600b6;fill-opacity:1;fill-rule:evenodd;stroke:#6600b6;stroke-width:5.26499987;stroke-miterlimit:4;stroke-dasharray:none;stroke-dashoffset:0;stroke-opacity:1" />
      <rect
         ry="1.0022693"
         rx="1.1024878"
         y="81.642998"
         x="275.01086"
         height="11.158506"
         width="2.2049756"
         id="rect849-0"
         style="opacity:1;fill:#6600b6;fill-opacity:1;fill-rule:evenodd;stroke:#6600b6;stroke-width:5.26499987;stroke-miterlimit:4;stroke-dasharray:none;stroke-dashoffset:0;stroke-opacity:1" />
      <path
         sodipodi:nodetypes="cssc"
         inkscape:connector-curvature="0"
         id="path909"
         d="m 306.68043,75.266277 c -0.3826,1.071633 -0.4176,1.626693 -0.76769,2.163988 -3.36116,5.158554 4.8827,4.734044 1.58479,-0.03845 -0.30058,-0.434981 -0.40726,-1.152688 -0.8171,-2.125539"
         style="fill:#ffffff;stroke:none;stroke-width:0.26458332px;stroke-linecap:butt;stroke-linejoin:miter;stroke-opacity:1" />
      <path
         sodipodi:nodetypes="cccccccccccccccccccccccccccccccccccccccccccccccccc"
         inkscape:connector-curvature="0"
         id="path911"
         d="m 331.06271,112.97432 -6.09487,-4.06324 -0.28348,-0.75596 c 1.05603,-0.36716 0.82423,-0.47522 1.18118,-1.84263 l -0.0473,-0.42522 0.61421,-0.28348 c 0.30288,-1.46277 0.18536,-1.15589 0.42522,-2.36235 -0.0322,-0.05 -0.35454,-0.53352 -0.8032,-0.75596 l 0.94494,-0.51971 0.58703,-2.109506 -0.54314,-1.19206 0.77029,-0.311163 0.55124,-1.867933 -0.13699,-0.519722 -1.22843,-1.08668 -1.46465,-0.14174 -5.57515,-4.20498 -0.23624,-0.70871 0.8032,-0.37798 1.6064,-2.22061 0.0945,-1.18117 -6.4256,-5.00818 -0.70871,-0.0945 -1.98437,-1.98438 -0.0473,-0.85044 1.6064,-2.5041 0.14174,-0.7087 0.42522,-0.47247 v -0.14174 l 0.8032,-0.8032 0.23624,0.0945 0.42522,-0.51972 25.84412,17.43415 0.8032,-0.18899 -0.14174,0.70871 1.08668,0.94494 -0.37797,0.8032 -1.79539,3.02381 -0.66146,0.23623 -0.75595,-0.56696 c -1.08806,-0.60123 -1.59637,-0.0902 -2.22061,0.23623 -1.1309,2.187492 -2.26942,4.375414 -2.64583,6.520094 0.0451,2.01376 0.12133,4.05858 0.0472,5.95312 l -0.42522,0.75596 -0.0945,2.22061 -0.42523,0.37797 -0.33073,0.8032 c -0.66913,0.29439 -1.3176,0.37206 -1.98437,0.42522 l -0.47247,-0.33072 z"
         style="opacity:1;fill:#ffffff;stroke:#6600b6;stroke-width:0.565;stroke-linecap:butt;stroke-linejoin:miter;stroke-miterlimit:0.80000001;stroke-dasharray:none;stroke-opacity:1" />
      <path
         sodipodi:nodetypes="ccccccccsc"
         inkscape:connector-curvature="0"
         id="path913"
         d="m 325.24078,91.319156 c 1.55919,0.13629 1.89328,-0.45202 2.35007,-1.11123 0.36735,-0.80218 -0.0618,-1.31576 -0.71872,-1.72036 l -1.79839,-1.21086 c -0.99462,-0.66975 -1.88961,-0.34307 -2.70611,0.7684 -1.91125,2.06209 -0.0878,3.0522 1.26953,4.17608 1.94457,1.6666 3.48579,1.91324 4.92659,1.15547 0.5538,-0.28986 0.88642,-1.3907 0.58584,-2.02409 -1.44724,0.13897 -1.27696,-0.0812 -1.74698,0.15581 -0.66074,0.33319 -1.48058,0.39176 -2.16183,-0.18922 z"
         style="opacity:1;fill:#6600b6;fill-opacity:1;stroke:none;stroke-width:0.26458332px;stroke-linecap:butt;stroke-linejoin:miter;stroke-opacity:1" />
    </g>
    <path
       style="font-style:normal;font-variant:normal;font-weight:normal;font-stretch:normal;font-size:27.30469704px;line-height:1.25;font-family:'Antique Olive Nord Italic';-inkscape-font-specification:'Antique Olive Nord Italic, ';letter-spacing:0px;word-spacing:0px;fill:#6600b6;fill-opacity:1;stroke:#6600b6;stroke-width:0.99999994;stroke-opacity:1"
       d="m 53.035156,405.45117 c -3.980815,0 -8.137157,0.17461 -12.470703,0.52735 -4.400733,0.40312 -8.910208,1.33555 -13.529297,2.79687 -3.84644,1.15898 -7.18206,3.04965 -10.003906,5.66992 -2.821843,2.68747 -5.231663,5.71097 -7.2304688,9.07031 -1.9988059,3.44333 -3.6117322,7.05474 -4.8378906,10.83399 -0.4845094,1.40384 -0.9110324,2.77365 -1.3105468,4.12695 H 37.333984 c 0.875988,-1.38534 1.878172,-2.66083 3.029297,-3.80078 1.713263,-1.73006 3.769948,-2.90586 6.171875,-3.52734 2.754656,-0.68866 5.68558,-1.1 8.792969,-1.23438 3.09059,-0.0673 6.079719,-0.0996 8.96875,-0.0996 3.712068,0 7.392229,0.209 11.037109,0.62891 3.644884,0.40312 7.256292,0.81447 10.833985,1.23437 l 5.996093,-21.66796 c -6.466723,-1.44451 -12.933664,-2.58595 -19.40039,-3.42579 -6.466724,-0.75585 -13.043434,-1.13281 -19.728516,-1.13281 z M 1.9023438,445.48438 c -0.719643,3.3205 -1.22298625,6.32373 -1.50000005,8.99609 C 0.13359666,457.23514 0,459.30042 0,460.67773 c 0,5.57652 1.0660393,9.90941 3.1992188,13 2.1331794,3.09057 4.956289,5.3582 8.4667972,6.80274 3.510509,1.44451 7.498878,2.31017 11.966796,2.5957 4.467919,0.26875 9.078568,0.40235 13.832032,0.40235 2.13318,0 4.710972,-0.0992 7.734375,-0.30079 2.956218,-0.13429 6.089491,-0.37766 9.398437,-0.73046 3.308949,-0.26875 6.610194,-0.68205 9.902344,-1.23633 3.241761,-0.48711 6.196513,-1.04063 8.867188,-1.66211 l 9.398437,-33.9375 H 51.398438 l -5.367188,19.19922 c -1.864431,0 -3.585172,-0.0754 -5.164062,-0.22657 -1.646075,-0.0673 -3.058607,-0.41182 -4.234376,-1.0332 -1.158971,-0.60467 -2.082819,-1.56288 -2.771484,-2.87305 -0.688663,-1.24293 -1.03125,-2.99806 -1.03125,-5.26562 0,-2.33474 0.267193,-4.81137 0.804688,-7.43164 0.180343,-0.85254 0.399476,-1.6809 0.636718,-2.49609 z"
       transform="matrix(0.26458333,0,0,0.26458333,6.8015897,34.327202)"
       id="path832"
       inkscape:connector-curvature="0" />
    <path
       style="font-style:normal;font-variant:normal;font-weight:normal;font-stretch:normal;font-size:27.30469704px;line-height:1.25;font-family:'Antique Olive Nord Italic';-inkscape-font-specification:'Antique Olive Nord Italic, ';letter-spacing:0px;word-spacing:0px;fill:#6600b6;fill-opacity:1;stroke:#6600b6;stroke-width:0.99999994;stroke-opacity:1"
       d="m 103.95508,407.61719 -12.699221,45.32617 c -0.55429,2.04921 -1.006644,3.76134 -1.359375,5.13867 -0.335934,1.37731 -0.572659,2.55313 -0.707031,3.52735 -0.201549,0.95742 -0.343741,1.74768 -0.427734,2.36914 -0.0672,0.68868 -0.09961,1.37775 -0.09961,2.0664 0,2.75467 0.553529,5.0891 1.66211,7.00391 1.024597,1.93161 2.469551,3.51876 4.333984,4.76172 1.78045,1.31013 3.845729,2.34375 6.197267,3.09961 2.26755,0.75585 4.63636,1.30079 7.10547,1.63672 2.41872,0.41993 4.86292,0.66329 7.33203,0.73046 1.93852,0.10839 3.70882,0.16073 5.38476,0.18164 l 4.15625,-19.5039 c -0.23599,-0.12312 -0.46403,-0.25444 -0.67382,-0.4043 -1.22616,-0.82303 -1.83789,-2.19259 -1.83789,-4.10742 0,-0.83984 0.20039,-2.11682 0.60351,-3.83008 0.35273,-1.64608 0.73164,-3.15784 1.13477,-4.53516 l 12.19336,-43.46093 z m 48.27344,0 -13.70704,48.82812 c -0.75585,2.53632 -1.82189,4.56917 -3.19921,6.09766 -0.85363,0.93691 -1.9993,1.58126 -3.4336,1.9375 l -4.02929,18.9082 c 4.24576,-0.11909 8.19412,-0.35918 11.79687,-0.74023 5.15658,-0.47033 9.69184,-1.46956 13.60547,-2.99805 3.86324,-1.51168 7.06331,-3.67815 9.59961,-6.5 2.55309,-2.82185 4.48478,-6.5688 5.79492,-11.23828 l 15.26758,-54.29492 z"
       transform="matrix(0.26458333,0,0,0.26458333,6.8015897,34.327202)"
       id="path835"
       inkscape:connector-curvature="0" />
    <path
       id="path837"
       style="font-style:normal;font-variant:normal;font-weight:normal;font-stretch:normal;font-size:27.30469704px;line-height:1.25;font-family:'Antique Olive Nord Italic';-inkscape-font-specification:'Antique Olive Nord Italic, ';letter-spacing:0px;word-spacing:0px;fill:#6600b6;fill-opacity:1;stroke:#6600b6;stroke-width:0.26458332;stroke-opacity:1"
       d="m 53.784866,161.67453 h 8.412726 l 2.699805,-10.15927 h 0.05333 l 2.293168,10.15927 h 9.285997 l 5.239622,-19.49859 h -8.406061 l -2.95312,11.30585 h -0.05333 l -1.746541,-11.30585 h -9.585975 z"
       inkscape:connector-curvature="0" />
    <path
       style="font-style:normal;font-variant:normal;font-weight:normal;font-stretch:normal;font-size:27.30469704px;line-height:1.25;font-family:'Antique Olive Nord Italic';-inkscape-font-specification:'Antique Olive Nord Italic, ';letter-spacing:0px;word-spacing:0px;fill:#6600b6;fill-opacity:1;stroke:#6600b6;stroke-width:0.99999994;stroke-opacity:1"
       d="m 395.18359,407.61719 -12.17968,47.25195 h 76.01171 l 4.06836,-15.6582 h -43.96484 l 2.06641,-8.26367 h 43.96484 l 6.09766,-23.33008 z m -13.98632,54.25976 -5.00977,19.43555 h 75.96289 l 4.99609,-19.43555 z"
       transform="matrix(0.26458333,0,0,0.26458333,6.8015897,34.327202)"
       id="path841"
       inkscape:connector-curvature="0" />
    <path
       style="font-style:normal;font-variant:normal;font-weight:normal;font-stretch:normal;font-size:27.30469704px;line-height:1.25;font-family:'Antique Olive Nord Italic';-inkscape-font-specification:'Antique Olive Nord Italic, ';letter-spacing:0px;word-spacing:0px;fill:#6600b6;fill-opacity:1;stroke:#6600b6;stroke-width:0.99999994;stroke-opacity:1"
       d="m 500.625,407.61719 -28.66602,47.72265 h 83.86914 v -47.72265 z m 23.23047,18.69531 h 0.20117 v 26.5293 H 507.5293 Z M 467.75,462.34766 456.35742,481.3125 h 35.29883 l 6.39844,-10.73242 h 26.00195 v 10.73242 h 31.77148 v -18.96484 z"
       transform="matrix(0.26458333,0,0,0.26458333,6.8015897,34.327202)"
       id="path844"
       inkscape:connector-curvature="0" />
    <path
       id="path846"
       style="font-style:normal;font-variant:normal;font-weight:normal;font-stretch:normal;font-size:27.30469704px;line-height:1.25;font-family:'Antique Olive Nord Italic';-inkscape-font-specification:'Antique Olive Nord Italic, ';letter-spacing:0px;word-spacing:0px;fill:#6600b6;fill-opacity:1;stroke:#6600b6;stroke-width:0.26458332;stroke-opacity:1"
       d="m 155.3442,161.67453 h 16.87212 l 1.7532,-6.69285 h -8.46605 l 3.29976,-12.80574 h -8.43272 z"
       inkscape:connector-curvature="0" />
    <path
       style="font-style:normal;font-variant:normal;font-weight:normal;font-stretch:normal;font-size:27.30469704px;line-height:1.25;font-family:'Antique Olive Nord Italic';-inkscape-font-specification:'Antique Olive Nord Italic, ';letter-spacing:0px;word-spacing:0px;fill:#6600b6;fill-opacity:1;stroke:#6600b6;stroke-width:0.99999994;stroke-opacity:1"
       d="m 682.4082,405.45117 c -2.13316,0.0839 -4.2672,0.19162 -6.40039,0.32617 -2.20036,0.20158 -4.3344,0.44692 -6.40039,0.73243 -2.06599,0.26875 -3.96329,0.63709 -5.69336,1.10742 -3.09057,0.90701 -5.91175,2.31758 -8.46484,4.23242 -2.53632,1.99879 -4.70276,4.41058 -6.5,7.23242 -1.78046,2.88905 -3.15002,6.08716 -4.10742,9.59766 -1.04139,3.5105 -1.5625,7.26606 -1.5625,11.26367 0,2.88905 0.58791,5.25588 1.76367,7.10352 1.15898,1.93161 2.7051,3.44337 4.63672,4.53515 1.93161,1.17576 4.06369,1.9746 6.39843,2.39453 2.33475,0.4703 4.71214,0.70508 7.13086,0.70508 4.60231,0 8.24613,0.0343 10.9336,0.10156 0.39519,0.0222 0.68051,0.0553 1.04883,0.0801 l 10.5039,-17.28711 c -1.6031,-0.10038 -2.8763,-0.27723 -3.8164,-0.53125 -1.31014,-0.28553 -2.13283,-0.66249 -2.46875,-1.13281 -0.41993,-0.48711 -0.63086,-1.10941 -0.63086,-1.86523 0,-0.89023 0.21093,-1.68047 0.63086,-2.36915 0.40312,-0.62145 1.19142,-1.175 2.36718,-1.66211 1.09178,-0.40312 2.63791,-0.71328 4.63672,-0.93164 1.93162,-0.20157 4.44261,-0.30273 7.53321,-0.30273 5.08938,0 10.11137,0.20898 15.0664,0.62891 4.95501,0.4703 9.94263,1.01719 14.96485,1.63867 l 6.50195,-22.80078 c -3.77928,-0.55428 -7.59303,-1.03438 -11.43945,-1.4375 -3.93044,-0.35273 -7.71841,-0.62851 -11.36329,-0.83008 -3.64487,-0.20158 -7.12073,-0.33715 -10.42968,-0.4043 -3.29215,-0.0839 -6.21641,-0.125 -8.76953,-0.125 z m 11.32422,32.39063 -11.21094,18.45117 c 0.2012,0.14342 0.37235,0.29298 0.49024,0.45508 0.35273,0.62148 0.5293,1.37735 0.5293,2.26757 0,1.24294 -0.37696,2.1754 -1.13282,2.79688 -0.83983,0.68868 -1.80665,1.16682 -2.89843,1.43555 -1.10859,0.35273 -2.2758,0.52929 -3.50196,0.52929 -1.24293,0.0673 -2.27655,0.10157 -3.09961,0.10157 -5.99642,0 -11.88211,-0.21093 -17.66015,-0.63086 -5.84527,-0.4031 -11.72431,-0.98243 -17.63672,-1.73828 l -4.63672,18.56835 c 6.86985,1.24294 13.88173,2.09999 21.03711,2.57032 7.1554,0.55428 14.89931,0.83203 23.23047,0.83203 5.08938,0 9.59028,-0.16798 13.5039,-0.50391 3.86324,-0.28555 7.27425,-0.87346 10.23047,-1.76367 2.95622,-0.89023 5.53401,-2.13478 7.73438,-3.73047 2.13319,-1.57888 3.98947,-3.66995 5.56836,-6.27344 0.55428,-0.90701 1.14219,-2.04844 1.76367,-3.42578 0.5543,-1.36053 1.06681,-2.8379 1.53711,-4.43359 0.4199,-1.57889 0.79686,-3.19181 1.13281,-4.83789 0.28553,-1.66287 0.42969,-3.2176 0.42969,-4.66211 0,-3.84645 -0.58791,-6.86995 -1.76367,-9.07031 -1.24296,-2.13317 -2.85588,-3.71173 -4.83789,-4.73633 -2.06599,-1.04141 -4.40903,-1.66173 -7.0293,-1.86328 -2.68747,-0.20158 -5.51058,-0.30274 -8.4668,-0.30274 -1.23018,0 -2.23463,-0.0213 -3.3125,-0.0352 z"
       transform="matrix(0.26458333,0,0,0.26458333,6.8015897,34.327202)"
       id="path848"
       inkscape:connector-curvature="0" />
    <g
       aria-label="Your piggy bank won't thank us."
       style="font-style:normal;font-weight:normal;font-size:9.64975834px;line-height:1.25;font-family:sans-serif;letter-spacing:0px;word-spacing:0px;fill:#ffffff;fill-opacity:1;stroke:#666666;stroke-width:0.265;stroke-miterlimit:4;stroke-dasharray:none"
       id="text1220">
      <path
         d="m 42.435149,167.74592 -2.216429,-3.85676 h 1.178578 l 1.55238,2.71336 1.556777,-2.71336 h 1.178578 l -2.225225,3.85676 v 2.93325 h -1.024659 z"
         style="font-style:normal;font-variant:normal;font-weight:normal;font-stretch:normal;font-size:9.00644207px;font-family:Futura;-inkscape-font-specification:Futura;fill:#ffffff;stroke-width:0.265;stroke:#666666;stroke-miterlimit:4;stroke-dasharray:none"
         id="path840" />
      <path
         d="m 46.072028,168.50672 q 0,-0.92791 0.664049,-1.57877 0.66405,-0.65086 1.618346,-0.65086 0.958693,0 1.62714,0.65526 0.659651,0.65525 0.659651,1.60955 0,0.96309 -0.664049,1.61395 -0.668447,0.64645 -1.640333,0.64645 -0.963091,0 -1.613948,-0.65965 -0.650856,-0.65085 -0.650856,-1.63593 z m 1.011466,0.0176 q 0,0.64206 0.343019,1.01586 0.351814,0.3782 0.92791,0.3782 0.580493,0 0.927909,-0.3738 0.347417,-0.3738 0.347417,-0.99827 0,-0.62447 -0.347417,-0.99828 -0.351814,-0.3782 -0.927909,-0.3782 -0.567301,0 -0.919115,0.3782 -0.351814,0.3782 -0.351814,0.97629 z"
         style="font-style:normal;font-variant:normal;font-weight:normal;font-stretch:normal;font-size:9.00644207px;font-family:Futura;-inkscape-font-specification:Futura;fill:#ffffff;stroke-width:0.265;stroke:#666666;stroke-miterlimit:4;stroke-dasharray:none"
         id="path842" />
      <path
         d="m 52.681736,166.39583 v 2.4583 q 0,1.06424 0.839957,1.06424 0.839956,0 0.839956,-1.06424 v -2.4583 h 0.989477 v 2.48029 q 0,0.51453 -0.127532,0.88833 -0.123135,0.33423 -0.426575,0.60248 -0.501335,0.43537 -1.275326,0.43537 -0.769594,0 -1.270929,-0.43537 -0.307837,-0.26825 -0.43537,-0.60248 -0.123135,-0.29904 -0.123135,-0.88833 v -2.48029 z"
         style="font-style:normal;font-variant:normal;font-weight:normal;font-stretch:normal;font-size:9.00644207px;font-family:Futura;-inkscape-font-specification:Futura;fill:#ffffff;stroke-width:0.265;stroke:#666666;stroke-miterlimit:4;stroke-dasharray:none"
         id="path845" />
      <path
         d="m 56.600067,166.39583 h 0.989477 v 0.3826 q 0.272656,-0.28585 0.483744,-0.39139 0.215486,-0.10995 0.510131,-0.10995 0.391393,0 0.817968,0.25507 l -0.452961,0.90592 q -0.281451,-0.20229 -0.54971,-0.20229 -0.809172,0 -0.809172,1.22255 v 2.22083 h -0.989477 z"
         style="font-style:normal;font-variant:normal;font-weight:normal;font-stretch:normal;font-size:9.00644207px;font-family:Futura;-inkscape-font-specification:Futura;fill:#ffffff;stroke-width:0.265;stroke:#666666;stroke-miterlimit:4;stroke-dasharray:none"
         id="path847" />
      <path
         d="m 63.746291,173.00994 h -0.989478 v -6.61411 h 0.989478 v 0.46616 q 0.584891,-0.5849 1.328098,-0.5849 0.883933,0 1.455631,0.65086 0.580493,0.64646 0.580493,1.63154 0,0.96309 -0.576095,1.60515 -0.571698,0.63766 -1.442438,0.63766 -0.752003,0 -1.345689,-0.60248 z m 2.352757,-4.44605 q 0,-0.61568 -0.334224,-1.00267 -0.338621,-0.3914 -0.853149,-0.3914 -0.545312,0 -0.883933,0.3782 -0.338621,0.3782 -0.338621,0.99388 0,0.60248 0.338621,0.99387 0.334223,0.3826 0.879535,0.3826 0.514529,0 0.848752,-0.38699 0.343019,-0.387 0.343019,-0.96749 z"
         style="font-style:normal;font-variant:normal;font-weight:normal;font-stretch:normal;font-size:9.00644207px;font-family:Futura;-inkscape-font-specification:Futura;fill:#ffffff;stroke-width:0.265;stroke:#666666;stroke-miterlimit:4;stroke-dasharray:none"
         id="path849" />
      <path
         d="m 69.146639,166.39583 v 4.28334 h -0.989477 v -4.28334 z m -1.138998,-1.78106 q 0,-0.25946 0.1891,-0.44856 0.1891,-0.1891 0.452961,-0.1891 0.268258,0 0.457358,0.1891 0.1891,0.1847 0.1891,0.45296 0,0.26826 -0.1891,0.45736 -0.184702,0.1891 -0.45296,0.1891 -0.268259,0 -0.457359,-0.1891 -0.1891,-0.1891 -0.1891,-0.46176 z"
         style="font-style:normal;font-variant:normal;font-weight:normal;font-stretch:normal;font-size:9.00644207px;font-family:Futura;-inkscape-font-specification:Futura;fill:#ffffff;stroke-width:0.265;stroke:#666666;stroke-miterlimit:4;stroke-dasharray:none"
         id="path851" />
      <path
         d="m 74.551383,170.57802 q 0,0.30344 -0.02199,0.53212 -0.01759,0.23308 -0.05277,0.40898 -0.105544,0.48375 -0.413382,0.83117 -0.580493,0.66844 -1.596356,0.66844 -0.857547,0 -1.411655,-0.46175 -0.571698,-0.47495 -0.659651,-1.31491 h 0.993875 q 0.05717,0.31663 0.1891,0.48814 0.307837,0.40019 0.897126,0.40019 1.086226,0 1.086226,-1.33249 v -0.59809 q -0.589289,0.60248 -1.358882,0.60248 -0.875138,0 -1.433643,-0.63326 -0.562902,-0.64206 -0.562902,-1.60515 0,-0.93671 0.523323,-1.59196 0.562903,-0.69484 1.486415,-0.69484 0.809173,0 1.345689,0.60249 v -0.48375 h 0.989477 z m -0.949898,-2.03172 q 0,-0.62447 -0.334223,-0.99828 -0.338621,-0.3826 -0.866343,-0.3826 -0.562902,0 -0.88833,0.41778 -0.294645,0.37381 -0.294645,0.96749 0,0.58489 0.294645,0.9587 0.32103,0.40898 0.88833,0.40898 0.567301,0 0.897127,-0.41338 0.303439,-0.3738 0.303439,-0.95869 z"
         style="font-style:normal;font-variant:normal;font-weight:normal;font-stretch:normal;font-size:9.00644207px;font-family:Futura;-inkscape-font-specification:Futura;fill:#ffffff;stroke-width:0.265;stroke:#666666;stroke-miterlimit:4;stroke-dasharray:none"
         id="path853" />
      <path
         d="m 79.951732,170.57802 q 0,0.30344 -0.02199,0.53212 -0.01759,0.23308 -0.05277,0.40898 -0.105545,0.48375 -0.413382,0.83117 -0.580493,0.66844 -1.596357,0.66844 -0.857547,0 -1.411654,-0.46175 -0.571698,-0.47495 -0.659652,-1.31491 h 0.993875 q 0.05717,0.31663 0.189101,0.48814 0.307837,0.40019 0.897126,0.40019 1.086226,0 1.086226,-1.33249 v -0.59809 q -0.589289,0.60248 -1.358882,0.60248 -0.875138,0 -1.433643,-0.63326 -0.562903,-0.64206 -0.562903,-1.60515 0,-0.93671 0.523324,-1.59196 0.562903,-0.69484 1.486415,-0.69484 0.809172,0 1.345689,0.60249 v -0.48375 h 0.989477 z m -0.949898,-2.03172 q 0,-0.62447 -0.334224,-0.99828 -0.338621,-0.3826 -0.866342,-0.3826 -0.562903,0 -0.888331,0.41778 -0.294644,0.37381 -0.294644,0.96749 0,0.58489 0.294644,0.9587 0.321031,0.40898 0.888331,0.40898 0.5673,0 0.897126,-0.41338 0.30344,-0.3738 0.30344,-0.95869 z"
         style="font-style:normal;font-variant:normal;font-weight:normal;font-stretch:normal;font-size:9.00644207px;font-family:Futura;-inkscape-font-specification:Futura;fill:#ffffff;stroke-width:0.265;stroke:#666666;stroke-miterlimit:4;stroke-dasharray:none"
         id="path855" />
      <path
         d="m 82.559552,169.88319 -1.926182,-3.48736 h 1.147793 l 1.310508,2.4627 1.222554,-2.4627 h 1.11701 l -3.412597,6.61411 h -1.130203 z"
         style="font-style:normal;font-variant:normal;font-weight:normal;font-stretch:normal;font-size:9.00644207px;font-family:Futura;-inkscape-font-specification:Futura;fill:#ffffff;stroke-width:0.265;stroke:#666666;stroke-miterlimit:4;stroke-dasharray:none"
         id="path857" />
      <path
         d="m 89.868491,163.25149 v 3.64128 q 0.593686,-0.61568 1.345689,-0.61568 0.866342,0 1.442438,0.64646 0.576095,0.64206 0.576095,1.60076 0,0.98947 -0.580493,1.63593 -0.576096,0.64206 -1.455631,0.64206 -0.743207,0 -1.328098,-0.57169 v 0.44856 h -0.989478 v -7.42768 z m 2.352757,5.31679 q 0,-0.61567 -0.334224,-1.00267 -0.338621,-0.39579 -0.848751,-0.39579 -0.545312,0 -0.888331,0.3826 -0.338621,0.3782 -0.338621,0.98508 0,0.62447 0.334223,0.99827 0.334224,0.3826 0.879536,0.3826 0.514528,0 0.853149,-0.3826 0.343019,-0.38699 0.343019,-0.96749 z"
         style="font-style:normal;font-variant:normal;font-weight:normal;font-stretch:normal;font-size:9.00644207px;font-family:Futura;-inkscape-font-specification:Futura;fill:#ffffff;stroke-width:0.265;stroke:#666666;stroke-miterlimit:4;stroke-dasharray:none"
         id="path859" />
      <path
         d="m 97.436894,166.39583 h 0.993875 v 4.28334 h -0.993875 v -0.44856 q -0.611277,0.57169 -1.314905,0.57169 -0.888331,0 -1.468824,-0.64206 -0.576096,-0.65525 -0.576096,-1.63593 0,-0.96309 0.576096,-1.60515 0.576095,-0.64207 1.442438,-0.64207 0.747605,0 1.341291,0.61568 z m -2.348359,2.12848 q 0,0.61567 0.329825,1.00267 0.338621,0.39139 0.85315,0.39139 0.549709,0 0.88833,-0.3782 0.338621,-0.39139 0.338621,-0.99387 0,-0.60249 -0.338621,-0.99388 -0.338621,-0.3826 -0.879535,-0.3826 -0.51013,0 -0.853149,0.387 -0.338621,0.39139 -0.338621,0.96749 z"
         style="font-style:normal;font-variant:normal;font-weight:normal;font-stretch:normal;font-size:9.00644207px;font-family:Futura;-inkscape-font-specification:Futura;fill:#ffffff;stroke-width:0.265;stroke:#666666;stroke-miterlimit:4;stroke-dasharray:none"
         id="path861" />
      <path
         d="m 99.679711,166.39583 h 0.993879 v 0.39579 q 0.51892,-0.51453 1.16978,-0.51453 0.7476,0 1.16538,0.47056 0.36061,0.40018 0.36061,1.30611 v 2.62541 h -0.99387 v -2.39234 q 0,-0.63326 -0.17591,-0.87514 -0.17151,-0.24627 -0.62447,-0.24627 -0.49254,0 -0.69923,0.32543 -0.20229,0.32103 -0.20229,1.12141 v 2.06691 h -0.993879 z"
         style="font-style:normal;font-variant:normal;font-weight:normal;font-stretch:normal;font-size:9.00644207px;font-family:Futura;-inkscape-font-specification:Futura;fill:#ffffff;stroke-width:0.265;stroke:#666666;stroke-miterlimit:4;stroke-dasharray:none"
         id="path863" />
      <path
         d="m 105.61217,163.25149 v 4.52961 l 1.39407,-1.38527 h 1.3281 l -1.86022,1.79865 1.99654,2.48469 h -1.28412 l -1.41605,-1.80745 -0.15832,0.15832 v 1.64913 h -0.98947 v -7.42768 z"
         style="font-style:normal;font-variant:normal;font-weight:normal;font-stretch:normal;font-size:9.00644207px;font-family:Futura;-inkscape-font-specification:Futura;fill:#ffffff;stroke-width:0.265;stroke:#666666;stroke-miterlimit:4;stroke-dasharray:none"
         id="path865" />
      <path
         d="m 112.42418,166.39583 1.12141,2.44511 1.20936,-2.8365 1.21815,2.8365 1.10822,-2.44511 h 1.10821 l -2.24281,4.60437 -1.19177,-2.75734 -1.20497,2.75734 -2.23841,-4.60437 z"
         style="font-style:normal;font-variant:normal;font-weight:normal;font-stretch:normal;font-size:9.00644207px;font-family:Futura;-inkscape-font-specification:Futura;fill:#ffffff;stroke-width:0.265;stroke:#666666;stroke-miterlimit:4;stroke-dasharray:none"
         id="path867" />
      <path
         d="m 118.65129,168.50672 q 0,-0.92791 0.66405,-1.57877 0.66405,-0.65086 1.61834,-0.65086 0.9587,0 1.62714,0.65526 0.65965,0.65525 0.65965,1.60955 0,0.96309 -0.66405,1.61395 -0.66844,0.64645 -1.64033,0.64645 -0.96309,0 -1.61395,-0.65965 -0.65085,-0.65085 -0.65085,-1.63593 z m 1.01146,0.0176 q 0,0.64206 0.34302,1.01586 0.35182,0.3782 0.92791,0.3782 0.5805,0 0.92791,-0.3738 0.34742,-0.3738 0.34742,-0.99827 0,-0.62447 -0.34742,-0.99828 -0.35181,-0.3782 -0.92791,-0.3782 -0.5673,0 -0.91911,0.3782 -0.35182,0.3782 -0.35182,0.97629 z"
         style="font-style:normal;font-variant:normal;font-weight:normal;font-stretch:normal;font-size:9.00644207px;font-family:Futura;-inkscape-font-specification:Futura;fill:#ffffff;stroke-width:0.265;stroke:#666666;stroke-miterlimit:4;stroke-dasharray:none"
         id="path869" />
      <path
         d="m 124.27152,166.39583 h 0.99387 v 0.39579 q 0.51893,-0.51453 1.16979,-0.51453 0.7476,0 1.16538,0.47056 0.36061,0.40018 0.36061,1.30611 v 2.62541 h -0.99388 v -2.39234 q 0,-0.63326 -0.1759,-0.87514 -0.17151,-0.24627 -0.62447,-0.24627 -0.49254,0 -0.69923,0.32543 -0.2023,0.32103 -0.2023,1.12141 v 2.06691 h -0.99387 z"
         style="font-style:normal;font-variant:normal;font-weight:normal;font-stretch:normal;font-size:9.00644207px;font-family:Futura;-inkscape-font-specification:Futura;fill:#ffffff;stroke-width:0.265;stroke:#666666;stroke-miterlimit:4;stroke-dasharray:none"
         id="path871" />
      <path
         d="m 130.00609,166.62011 h -0.74761 l -0.1891,-2.73095 h 1.12581 z"
         style="font-style:normal;font-variant:normal;font-weight:normal;font-stretch:normal;font-size:9.00644207px;font-family:Futura;-inkscape-font-specification:Futura;fill:#ffffff;stroke-width:0.265;stroke:#666666;stroke-miterlimit:4;stroke-dasharray:none"
         id="path873" />
      <path
         d="m 132.32807,167.31934 v 3.35983 h -0.98948 v -3.35983 h -0.42218 v -0.92351 h 0.42218 v -1.56997 h 0.98948 v 1.56997 h 0.76959 v 0.92351 z"
         style="font-style:normal;font-variant:normal;font-weight:normal;font-stretch:normal;font-size:9.00644207px;font-family:Futura;-inkscape-font-specification:Futura;fill:#ffffff;stroke-width:0.265;stroke:#666666;stroke-miterlimit:4;stroke-dasharray:none"
         id="path875" />
      <path
         d="m 137.57009,167.31934 v 3.35983 h -0.98947 v -3.35983 h -0.42218 v -0.92351 h 0.42218 v -1.56997 h 0.98947 v 1.56997 h 0.7696 v 0.92351 z"
         style="font-style:normal;font-variant:normal;font-weight:normal;font-stretch:normal;font-size:9.00644207px;font-family:Futura;-inkscape-font-specification:Futura;fill:#ffffff;stroke-width:0.265;stroke:#666666;stroke-miterlimit:4;stroke-dasharray:none"
         id="path877" />
      <path
         d="m 139.01253,163.25149 h 0.98948 v 3.50055 q 0.52772,-0.47495 1.16538,-0.47495 0.72562,0 1.16099,0.47056 0.3694,0.40898 0.3694,1.30611 v 2.62541 h -0.98947 v -2.53306 q 0,-0.51453 -0.1847,-0.74321 -0.18031,-0.23308 -0.5849,-0.23308 -0.51892,0 -0.73001,0.32103 -0.20669,0.32543 -0.20669,1.11701 v 2.07131 h -0.98948 z"
         style="font-style:normal;font-variant:normal;font-weight:normal;font-stretch:normal;font-size:9.00644207px;font-family:Futura;-inkscape-font-specification:Futura;fill:#ffffff;stroke-width:0.265;stroke:#666666;stroke-miterlimit:4;stroke-dasharray:none"
         id="path879" />
      <path
         d="m 147.11305,166.39583 h 0.99387 v 4.28334 h -0.99387 v -0.44856 q -0.61128,0.57169 -1.31491,0.57169 -0.88833,0 -1.46882,-0.64206 -0.5761,-0.65525 -0.5761,-1.63593 0,-0.96309 0.5761,-1.60515 0.5761,-0.64207 1.44244,-0.64207 0.7476,0 1.34129,0.61568 z m -2.34836,2.12848 q 0,0.61567 0.32983,1.00267 0.33862,0.39139 0.85314,0.39139 0.54971,0 0.88834,-0.3782 0.33862,-0.39139 0.33862,-0.99387 0,-0.60249 -0.33862,-0.99388 -0.33863,-0.3826 -0.87954,-0.3826 -0.51013,0 -0.85315,0.387 -0.33862,0.39139 -0.33862,0.96749 z"
         style="font-style:normal;font-variant:normal;font-weight:normal;font-stretch:normal;font-size:9.00644207px;font-family:Futura;-inkscape-font-specification:Futura;fill:#ffffff;stroke-width:0.265;stroke:#666666;stroke-miterlimit:4;stroke-dasharray:none"
         id="path881" />
      <path
         d="m 149.35587,166.39583 h 0.99387 v 0.39579 q 0.51893,-0.51453 1.16979,-0.51453 0.7476,0 1.16538,0.47056 0.36061,0.40018 0.36061,1.30611 v 2.62541 h -0.99387 v -2.39234 q 0,-0.63326 -0.17591,-0.87514 -0.17151,-0.24627 -0.62447,-0.24627 -0.49254,0 -0.69923,0.32543 -0.2023,0.32103 -0.2023,1.12141 v 2.06691 h -0.99387 z"
         style="font-style:normal;font-variant:normal;font-weight:normal;font-stretch:normal;font-size:9.00644207px;font-family:Futura;-inkscape-font-specification:Futura;fill:#ffffff;stroke-width:0.265;stroke:#666666;stroke-miterlimit:4;stroke-dasharray:none"
         id="path883" />
      <path
         d="m 155.28833,163.25149 v 4.52961 l 1.39407,-1.38527 h 1.32809 l -1.86021,1.79865 1.99654,2.48469 h -1.28412 l -1.41605,-1.80745 -0.15832,0.15832 v 1.64913 h -0.98947 v -7.42768 z"
         style="font-style:normal;font-variant:normal;font-weight:normal;font-stretch:normal;font-size:9.00644207px;font-family:Futura;-inkscape-font-specification:Futura;fill:#ffffff;stroke-width:0.265;stroke:#666666;stroke-miterlimit:4;stroke-dasharray:none"
         id="path885" />
      <path
         d="m 162.55329,166.39583 v 2.4583 q 0,1.06424 0.83996,1.06424 0.83996,0 0.83996,-1.06424 v -2.4583 h 0.98947 v 2.48029 q 0,0.51453 -0.12753,0.88833 -0.12313,0.33423 -0.42657,0.60248 -0.50134,0.43537 -1.27533,0.43537 -0.76959,0 -1.27093,-0.43537 -0.30784,-0.26825 -0.43537,-0.60248 -0.12313,-0.29904 -0.12313,-0.88833 v -2.48029 z"
         style="font-style:normal;font-variant:normal;font-weight:normal;font-stretch:normal;font-size:9.00644207px;font-family:Futura;-inkscape-font-specification:Futura;fill:#ffffff;stroke-width:0.265;stroke:#666666;stroke-miterlimit:4;stroke-dasharray:none"
         id="path887" />
      <path
         d="m 168.96071,167.12585 -0.81797,0.43537 q -0.1935,-0.3958 -0.47935,-0.3958 -0.13632,0 -0.23307,0.0924 -0.0967,0.088 -0.0967,0.22868 0,0.24627 0.5717,0.48814 0.78718,0.33862 1.05984,0.62447 0.27265,0.28585 0.27265,0.76959 0,0.62007 -0.45736,1.03785 -0.44416,0.39579 -1.07303,0.39579 -1.07743,0 -1.52599,-1.05104 l 0.84435,-0.39139 q 0.17591,0.30783 0.26826,0.39139 0.1803,0.16711 0.43097,0.16711 0.50134,0 0.50134,-0.45736 0,-0.26386 -0.387,-0.49254 -0.14952,-0.0748 -0.29904,-0.14512 -0.14952,-0.0704 -0.30344,-0.14512 -0.43097,-0.21109 -0.60688,-0.42218 -0.22428,-0.26826 -0.22428,-0.69044 0,-0.5585 0.3826,-0.92351 0.39139,-0.36501 0.94989,-0.36501 0.82237,0 1.22256,0.84876 z"
         style="font-style:normal;font-variant:normal;font-weight:normal;font-stretch:normal;font-size:9.00644207px;font-family:Futura;-inkscape-font-specification:Futura;fill:#ffffff;stroke-width:0.265;stroke:#666666;stroke-miterlimit:4;stroke-dasharray:none"
         id="path889" />
      <path
         d="m 170.28441,170.18663 q 0,-0.24627 0.1803,-0.42658 0.18031,-0.1803 0.43098,-0.1803 0.25066,0 0.43097,0.1803 0.1803,0.18031 0.1803,0.43098 0,0.25506 -0.1803,0.43537 -0.17591,0.1759 -0.43097,0.1759 -0.25947,0 -0.43537,-0.1759 -0.17591,-0.17591 -0.17591,-0.43977 z"
         style="font-style:normal;font-variant:normal;font-weight:normal;font-stretch:normal;font-size:9.00644207px;font-family:Futura;-inkscape-font-specification:Futura;fill:#ffffff;stroke-width:0.265;stroke:#666666;stroke-miterlimit:4;stroke-dasharray:none"
         id="path891" />
    </g>
    <rect
       style="opacity:1;fill:#ffffff;fill-opacity:1;fill-rule:evenodd;stroke:none;stroke-width:4.16499996;stroke-linecap:round;stroke-miterlimit:4;stroke-dasharray:none;stroke-dashoffset:0;stroke-opacity:1"
       id="rect876"
       width="13.418155"
       height="1.842634"
       x="123.09633"
       y="-18.492302"
       transform="rotate(32.636478)" />
  </g>
</svg>
