<svg xmlns="http://www.w3.org/2000/svg" viewBox="0 0 1000 1000"><path d="M929 839V411q-18 20-39 36-149 115-238 189-28 24-46 37t-48 28-57 13h-2q-26 0-57-13t-48-28-46-37q-88-74-238-189-21-16-39-36v428q0 7 6 13t12 5h822q7 0 12-5t6-13zm0-586v-14l-1-7-1-7-3-5-5-4-8-2H89q-7 0-12 6t-6 12q0 94 83 159 107 84 223 176 4 3 20 17t25 21 25 17 28 16 24 5h2q11 0 24-5t28-16 25-17 25-21 20-17q116-92 224-176 30-24 56-65t26-73zm71-21v607q0 37-26 63t-63 27H89q-36 0-63-27T0 839V232q0-37 26-63t63-26h822q37 0 63 26t26 63z"/></svg>